<svg width="32" height="33" viewBox="0 0 32 33" fill="none" xmlns="http://www.w3.org/2000/svg">
<g clip-path="url(#clip0_1_5)" filter="url(#filter0_dd_1_5)">
<path d="M4 2.78125C4 2.57405 4.08231 2.37534 4.22882 2.22882C4.37534 2.08231 4.57405 2 4.78125 2H7.125C7.29927 2.00005 7.46852 2.05836 7.60583 2.16566C7.74314 2.27297 7.84064 2.4231 7.88281 2.59219L8.51562 5.125H26.6562C26.771 5.12511 26.8842 5.15047 26.9881 5.1993C27.0919 5.24812 27.1836 5.31921 27.2569 5.40751C27.3301 5.4958 27.383 5.59914 27.4118 5.71018C27.4406 5.82123 27.4445 5.93725 27.4234 6.05L25.0797 18.55C25.0462 18.729 24.9512 18.8907 24.8111 19.0071C24.671 19.1235 24.4946 19.1873 24.3125 19.1875H10.25C10.0679 19.1873 9.89151 19.1235 9.75142 19.0071C9.61134 18.8907 9.51633 18.729 9.48281 18.55L7.14062 6.07344L6.51562 3.5625H4.78125C4.57405 3.5625 4.37534 3.48019 4.22882 3.33368C4.08231 3.18716 4 2.98845 4 2.78125ZM8.84688 6.6875L10.8984 17.625H23.6641L25.7156 6.6875H8.84688ZM11.8125 19.1875C10.9837 19.1875 10.1888 19.5167 9.60279 20.1028C9.01674 20.6888 8.6875 21.4837 8.6875 22.3125C8.6875 23.1413 9.01674 23.9362 9.60279 24.5222C10.1888 25.1083 10.9837 25.4375 11.8125 25.4375C12.6413 25.4375 13.4362 25.1083 14.0222 24.5222C14.6083 23.9362 14.9375 23.1413 14.9375 22.3125C14.9375 21.4837 14.6083 20.6888 14.0222 20.1028C13.4362 19.5167 12.6413 19.1875 11.8125 19.1875ZM22.75 19.1875C21.9212 19.1875 21.1263 19.5167 20.5403 20.1028C19.9542 20.6888 19.625 21.4837 19.625 22.3125C19.625 23.1413 19.9542 23.9362 20.5403 24.5222C21.1263 25.1083 21.9212 25.4375 22.75 25.4375C23.5788 25.4375 24.3737 25.1083 24.9597 24.5222C25.5458 23.9362 25.875 23.1413 25.875 22.3125C25.875 21.4837 25.5458 20.6888 24.9597 20.1028C24.3737 19.5167 23.5788 19.1875 22.75 19.1875ZM11.8125 20.75C12.2269 20.75 12.6243 20.9146 12.9174 21.2076C13.2104 21.5007 13.375 21.8981 13.375 22.3125C13.375 22.7269 13.2104 23.1243 12.9174 23.4174C12.6243 23.7104 12.2269 23.875 11.8125 23.875C11.3981 23.875 11.0007 23.7104 10.7076 23.4174C10.4146 23.1243 10.25 22.7269 10.25 22.3125C10.25 21.8981 10.4146 21.5007 10.7076 21.2076C11.0007 20.9146 11.3981 20.75 11.8125 20.75ZM22.75 20.75C23.1644 20.75 23.5618 20.9146 23.8549 21.2076C24.1479 21.5007 24.3125 21.8981 24.3125 22.3125C24.3125 22.7269 24.1479 23.1243 23.8549 23.4174C23.5618 23.7104 23.1644 23.875 22.75 23.875C22.3356 23.875 21.9382 23.7104 21.6451 23.4174C21.3521 23.1243 21.1875 22.7269 21.1875 22.3125C21.1875 21.8981 21.3521 21.5007 21.6451 21.2076C21.9382 20.9146 22.3356 20.75 22.75 20.75Z" fill="white"/>
</g>
<defs>
<filter id="filter0_dd_1_5" x="0" y="0" width="33" height="33" filterUnits="userSpaceOnUse" color-interpolation-filters="sRGB">
<feFlood flood-opacity="0" result="BackgroundImageFix"/>
<feColorMatrix in="SourceAlpha" type="matrix" values="0 0 0 0 0 0 0 0 0 0 0 0 0 0 0 0 0 0 127 0" result="hardAlpha"/>
<feOffset dy="4"/>
<feGaussianBlur stdDeviation="2"/>
<feComposite in2="hardAlpha" operator="out"/>
<feColorMatrix type="matrix" values="0 0 0 0 0 0 0 0 0 0 0 0 0 0 0 0 0 0 0.25 0"/>
<feBlend mode="normal" in2="BackgroundImageFix" result="effect1_dropShadow_1_5"/>
<feColorMatrix in="SourceAlpha" type="matrix" values="0 0 0 0 0 0 0 0 0 0 0 0 0 0 0 0 0 0 127 0" result="hardAlpha"/>
<feOffset dy="4"/>
<feGaussianBlur stdDeviation="2"/>
<feComposite in2="hardAlpha" operator="out"/>
<feColorMatrix type="matrix" values="0 0 0 0 0 0 0 0 0 0 0 0 0 0 0 0 0 0 0.25 0"/>
<feBlend mode="normal" in2="effect1_dropShadow_1_5" result="effect2_dropShadow_1_5"/>
<feBlend mode="normal" in="SourceGraphic" in2="effect2_dropShadow_1_5" result="shape"/>
</filter>
<clipPath id="clip0_1_5">
<rect width="25" height="25" fill="white" transform="translate(4)"/>
</clipPath>
</defs>
</svg>
