<svg width="128" height="15" viewBox="0 0 128 15" fill="none" xmlns="http://www.w3.org/2000/svg">
<path d="M10.9277 14.4141H9.04297V7.8418H1.875V14.4141H0V0.195312H1.875V6.30859H9.04297V0.195312H10.9277V14.4141Z" fill="white"/>
<path d="M25.1953 7.76367C25.1953 9.1569 24.9609 10.3743 24.4922 11.416C24.0234 12.4512 23.3594 13.2422 22.5 13.7891C21.6406 14.3359 20.638 14.6094 19.4922 14.6094C18.3724 14.6094 17.3796 14.3359 16.5137 13.7891C15.6478 13.2357 14.974 12.4512 14.4922 11.4355C14.0169 10.4134 13.7728 9.23177 13.7598 7.89062V6.86523C13.7598 5.49805 13.9974 4.29036 14.4727 3.24219C14.9479 2.19401 15.6185 1.39323 16.4844 0.839844C17.3568 0.279948 18.3529 0 19.4727 0C20.612 0 21.6146 0.276693 22.4805 0.830078C23.3529 1.37695 24.0234 2.17448 24.4922 3.22266C24.9609 4.26432 25.1953 5.47852 25.1953 6.86523V7.76367ZM23.3301 6.8457C23.3301 5.15951 22.9915 3.86719 22.3145 2.96875C21.6374 2.0638 20.6901 1.61133 19.4727 1.61133C18.2878 1.61133 17.3535 2.0638 16.6699 2.96875C15.9928 3.86719 15.6445 5.11719 15.625 6.71875V7.76367C15.625 9.39779 15.9668 10.6836 16.6504 11.6211C17.3405 12.5521 18.2878 13.0176 19.4922 13.0176C20.7031 13.0176 21.6406 12.5781 22.3047 11.6992C22.9688 10.8138 23.3105 9.54753 23.3301 7.90039V6.8457Z" fill="white"/>
<path d="M37.5586 1.73828H32.9883V14.4141H31.123V1.73828H26.5625V0.195312H37.5586V1.73828Z" fill="white"/>
<path d="M46.1133 8.84766V14.4141H44.2383V0.195312H49.4824C51.0384 0.195312 52.2559 0.592448 53.1348 1.38672C54.0202 2.18099 54.4629 3.23242 54.4629 4.54102C54.4629 5.92122 54.0299 6.98568 53.1641 7.73438C52.3047 8.47656 51.071 8.84766 49.4629 8.84766H46.1133ZM46.1133 7.31445H49.4824C50.485 7.31445 51.2533 7.08008 51.7871 6.61133C52.321 6.13607 52.5879 5.45247 52.5879 4.56055C52.5879 3.71419 52.321 3.03711 51.7871 2.5293C51.2533 2.02148 50.5208 1.75781 49.5898 1.73828H46.1133V7.31445Z" fill="white"/>
<path d="M58.8672 14.4141H56.9922V0.195312H58.8672V14.4141Z" fill="white"/>
<path d="M63.7109 12.8809H71.8457V14.4141H61.4941V13.0078L69.2871 1.73828H61.6211V0.195312H71.5332V1.57227L63.7109 12.8809Z" fill="white"/>
<path d="M75.6836 12.8809H83.8184V14.4141H73.4668V13.0078L81.2598 1.73828H73.5938V0.195312H83.5059V1.57227L75.6836 12.8809Z" fill="white"/>
<path d="M94.2383 10.7031H88.2812L86.9434 14.4141H85.0098L90.4395 0.195312H92.0801L97.5195 14.4141H95.5957L94.2383 10.7031ZM88.8477 9.16016H93.6816L91.2598 2.50977L88.8477 9.16016Z" fill="white"/>
<path d="M99.1895 13.4668C99.1895 13.1543 99.2806 12.8939 99.4629 12.6855C99.6517 12.4772 99.9316 12.373 100.303 12.373C100.674 12.373 100.954 12.4772 101.143 12.6855C101.338 12.8939 101.436 13.1543 101.436 13.4668C101.436 13.7663 101.338 14.0169 101.143 14.2188C100.954 14.4206 100.674 14.5215 100.303 14.5215C99.9316 14.5215 99.6517 14.4206 99.4629 14.2188C99.2806 14.0169 99.1895 13.7663 99.1895 13.4668Z" fill="white"/>
<path d="M109.922 8.66211H106.582V14.4141H104.697V0.195312H109.404C111.006 0.195312 112.236 0.559896 113.096 1.28906C113.962 2.01823 114.395 3.07943 114.395 4.47266C114.395 5.35807 114.154 6.12956 113.672 6.78711C113.197 7.44466 112.533 7.9362 111.68 8.26172L115.02 14.2969V14.4141H113.008L109.922 8.66211ZM106.582 7.12891H109.463C110.394 7.12891 111.133 6.88802 111.68 6.40625C112.233 5.92448 112.51 5.27995 112.51 4.47266C112.51 3.59375 112.246 2.91992 111.719 2.45117C111.198 1.98242 110.443 1.74479 109.453 1.73828H106.582V7.12891Z" fill="white"/>
<path d="M127.041 0.195312V9.86328C127.035 11.2044 126.611 12.3014 125.771 13.1543C124.938 14.0072 123.805 14.4857 122.373 14.5898L121.875 14.6094C120.319 14.6094 119.079 14.1895 118.154 13.3496C117.23 12.5098 116.761 11.3542 116.748 9.88281V0.195312H118.604V9.82422C118.604 10.8529 118.887 11.6536 119.453 12.2266C120.02 12.793 120.827 13.0762 121.875 13.0762C122.936 13.0762 123.747 12.793 124.307 12.2266C124.873 11.6602 125.156 10.8626 125.156 9.83398V0.195312H127.041Z" fill="white"/>
</svg>
